# xmcd
#
# Track frame offsets: 
#        150
#        18653
#        35806
#        57506
#        76250
#        99869
#        120098
#        138489
#        158654
#        178410
#        194910
#
# Disc length: 2894 seconds
#
# Revision: 0
# Processed by: cddbd v1.5.2PL0 Copyright (c) Steve Scherf et al.
# Submitted via: ExactAudioCopyFreeDBPlugin 1.0
#
DISCID=950b4c0b
DTITLE=James Brown is Annie - James Brown is Annie II
DYEAR=2018
DGENRE=Funk
TTITLE0=All The Love
TTITLE1=Change Your Mind
TTITLE2=Set Me Free
TTITLE3=Five Up High
TTITLE4=Funky Little Crumb
TTITLE5=Your Face
TTITLE6=Sandcastles
TTITLE7=In Love
TTITLE8=Tomorrow
TTITLE9=Find Out The Way
TTITLE10=Stand X
EXTD=
EXTT0=
EXTT1=
EXTT2=
EXTT3=
EXTT4=
EXTT5=
EXTT6=
EXTT7=
EXTT8=
EXTT9=
EXTT10=
PLAYORDER=
